<mxfile host="app.diagrams.net" modified="2021-04-28T03:02:58.135Z" agent="5.0 (Windows NT 10.0; Win64; x64) AppleWebKit/537.36 (KHTML, like Gecko) Chrome/90.0.4430.85 Safari/537.36" etag="K_IrAkCiqn-JbYEh_3cJ" version="14.6.6" type="github">
  <diagram id="-7KmZwoqpkGFtMzAmy9c" name="Page-1">
    <mxGraphModel dx="782" dy="437" grid="1" gridSize="10" guides="1" tooltips="1" connect="1" arrows="1" fold="1" page="1" pageScale="1" pageWidth="827" pageHeight="1169" math="0" shadow="0">
      <root>
        <mxCell id="0" />
        <mxCell id="1" parent="0" />
        <mxCell id="vMok8Gy0wVekIsgNc7PC-1" value="" style="rounded=0;whiteSpace=wrap;html=1;labelBackgroundColor=#7EA6E0;fillColor=#b1ddf0;strokeColor=#10739e;" vertex="1" parent="1">
          <mxGeometry x="160" y="570" width="430" height="60" as="geometry" />
        </mxCell>
        <mxCell id="vMok8Gy0wVekIsgNc7PC-2" value="" style="rounded=0;whiteSpace=wrap;html=1;fillColor=#fad7ac;strokeColor=#b46504;" vertex="1" parent="1">
          <mxGeometry x="160" y="470" width="430" height="100" as="geometry" />
        </mxCell>
        <mxCell id="vMok8Gy0wVekIsgNc7PC-3" value="" style="rounded=0;whiteSpace=wrap;html=1;gradientColor=#ffd966;fillColor=#fff2cc;strokeColor=#d6b656;" vertex="1" parent="1">
          <mxGeometry x="160" y="430" width="430" height="40" as="geometry" />
        </mxCell>
        <mxCell id="vMok8Gy0wVekIsgNc7PC-4" value="&lt;div style=&quot;text-align: left&quot;&gt;&lt;/div&gt;" style="rounded=0;whiteSpace=wrap;html=1;labelBackgroundColor=#E6E6E6;labelBorderColor=#FFFFFF;fillColor=#d0cee2;strokeColor=#56517e;" vertex="1" parent="1">
          <mxGeometry x="160" y="630" width="430" height="60" as="geometry" />
        </mxCell>
        <mxCell id="vMok8Gy0wVekIsgNc7PC-5" value="&lt;ul style=&quot;font-size: 17px&quot;&gt;&lt;li&gt;&lt;font face=&quot;Times New Roman&quot;&gt;Scheduling&lt;/font&gt;&lt;/li&gt;&lt;li&gt;&lt;font face=&quot;Times New Roman&quot;&gt;&amp;nbsp;Deployment&lt;/font&gt;&lt;/li&gt;&lt;/ul&gt;" style="text;html=1;strokeColor=none;fillColor=none;align=center;verticalAlign=middle;whiteSpace=wrap;rounded=0;" vertex="1" parent="1">
          <mxGeometry x="150" y="645" width="160" height="30" as="geometry" />
        </mxCell>
        <mxCell id="vMok8Gy0wVekIsgNc7PC-6" value="&lt;font face=&quot;Times New Roman&quot; size=&quot;1&quot;&gt;&lt;b style=&quot;font-size: 17px&quot;&gt;K8S&lt;/b&gt;&lt;/font&gt;" style="text;html=1;strokeColor=none;fillColor=none;align=center;verticalAlign=middle;whiteSpace=wrap;rounded=0;rotation=90;" vertex="1" parent="1">
          <mxGeometry x="540" y="650" width="50" height="20" as="geometry" />
        </mxCell>
        <mxCell id="vMok8Gy0wVekIsgNc7PC-7" value="&lt;ul style=&quot;font-size: 17px&quot;&gt;&lt;li&gt;&lt;font face=&quot;Times New Roman&quot;&gt;Configuration&lt;/font&gt;&lt;/li&gt;&lt;li&gt;&lt;font face=&quot;Times New Roman&quot;&gt;Resource Management&lt;/font&gt;&lt;/li&gt;&lt;/ul&gt;" style="text;html=1;strokeColor=none;fillColor=none;align=left;verticalAlign=middle;whiteSpace=wrap;rounded=0;" vertex="1" parent="1">
          <mxGeometry x="330" y="645" width="211" height="30" as="geometry" />
        </mxCell>
        <mxCell id="vMok8Gy0wVekIsgNc7PC-8" value="&lt;ul style=&quot;font-size: 17px&quot;&gt;&lt;li&gt;&lt;font face=&quot;Times New Roman&quot;&gt;Traffic Routing&lt;/font&gt;&lt;/li&gt;&lt;li&gt;&lt;font face=&quot;Times New Roman&quot;&gt;Network Resilience&amp;nbsp;&lt;/font&gt;&lt;/li&gt;&lt;/ul&gt;" style="text;html=1;strokeColor=none;fillColor=none;align=left;verticalAlign=middle;whiteSpace=wrap;rounded=0;" vertex="1" parent="1">
          <mxGeometry x="160" y="585" width="210" height="30" as="geometry" />
        </mxCell>
        <mxCell id="vMok8Gy0wVekIsgNc7PC-9" value="&lt;ul style=&quot;font-size: 17px&quot;&gt;&lt;li&gt;&lt;font face=&quot;Times New Roman&quot;&gt;Observability&lt;/font&gt;&lt;/li&gt;&lt;li&gt;&lt;font face=&quot;Times New Roman&quot;&gt;Policy Enforcement&lt;/font&gt;&lt;/li&gt;&lt;/ul&gt;" style="text;html=1;strokeColor=none;fillColor=none;align=left;verticalAlign=middle;whiteSpace=wrap;rounded=0;" vertex="1" parent="1">
          <mxGeometry x="330" y="585" width="211" height="30" as="geometry" />
        </mxCell>
        <mxCell id="vMok8Gy0wVekIsgNc7PC-10" value="&lt;font face=&quot;Times New Roman&quot; size=&quot;1&quot;&gt;&lt;b style=&quot;font-size: 17px&quot;&gt;Envoy&lt;/b&gt;&lt;/font&gt;" style="text;html=1;strokeColor=none;fillColor=none;align=center;verticalAlign=middle;whiteSpace=wrap;rounded=0;rotation=90;" vertex="1" parent="1">
          <mxGeometry x="540" y="595" width="50" height="20" as="geometry" />
        </mxCell>
        <mxCell id="vMok8Gy0wVekIsgNc7PC-11" value="&lt;ul&gt;&lt;li&gt;&lt;font face=&quot;Times New Roman&quot; style=&quot;font-size: 19px&quot;&gt;Business Logic&lt;/font&gt;&lt;/li&gt;&lt;/ul&gt;" style="text;html=1;strokeColor=none;fillColor=none;align=center;verticalAlign=middle;whiteSpace=wrap;rounded=0;" vertex="1" parent="1">
          <mxGeometry x="160" y="435" width="160" height="30" as="geometry" />
        </mxCell>
        <mxCell id="vMok8Gy0wVekIsgNc7PC-12" value="&lt;span style=&quot;font-family: &amp;#34;times new roman&amp;#34;&quot;&gt;&lt;font style=&quot;font-size: 18px&quot;&gt;Polyglot&lt;/font&gt;&lt;/span&gt;" style="text;html=1;strokeColor=none;fillColor=none;align=center;verticalAlign=middle;whiteSpace=wrap;rounded=0;" vertex="1" parent="1">
          <mxGeometry x="470" y="435" width="160" height="30" as="geometry" />
        </mxCell>
        <mxCell id="vMok8Gy0wVekIsgNc7PC-13" value="&lt;ul style=&quot;font-size: 17px&quot;&gt;&lt;li&gt;&lt;font face=&quot;Times New Roman&quot;&gt;Scaling&lt;/font&gt;&lt;/li&gt;&lt;li&gt;&lt;font face=&quot;Times New Roman&quot;&gt;Event Binding&lt;/font&gt;&lt;/li&gt;&lt;li&gt;&lt;font face=&quot;Times New Roman&quot;&gt;Orchestration&amp;nbsp;&lt;/font&gt;&lt;/li&gt;&lt;/ul&gt;" style="text;html=1;strokeColor=none;fillColor=none;align=left;verticalAlign=middle;whiteSpace=wrap;rounded=0;" vertex="1" parent="1">
          <mxGeometry x="160" y="500" width="210" height="30" as="geometry" />
        </mxCell>
        <mxCell id="vMok8Gy0wVekIsgNc7PC-14" value="&lt;ul style=&quot;font-size: 17px&quot;&gt;&lt;li&gt;&lt;font face=&quot;Times New Roman&quot;&gt;Connectors/Adapters&lt;/font&gt;&lt;/li&gt;&lt;li&gt;&lt;font face=&quot;Times New Roman&quot;&gt;State Abstraction&lt;/font&gt;&lt;/li&gt;&lt;li&gt;&lt;font face=&quot;Times New Roman&quot;&gt;Distributed Primitives&lt;/font&gt;&lt;/li&gt;&lt;/ul&gt;" style="text;html=1;strokeColor=none;fillColor=none;align=left;verticalAlign=middle;whiteSpace=wrap;rounded=0;" vertex="1" parent="1">
          <mxGeometry x="331" y="500" width="210" height="30" as="geometry" />
        </mxCell>
        <mxCell id="vMok8Gy0wVekIsgNc7PC-15" value="&lt;font face=&quot;Times New Roman&quot; size=&quot;1&quot;&gt;&lt;b style=&quot;font-size: 17px&quot;&gt;Apache&lt;br&gt;EventMesh&lt;/b&gt;&lt;/font&gt;" style="text;html=1;strokeColor=none;fillColor=none;align=center;verticalAlign=middle;whiteSpace=wrap;rounded=0;rotation=90;" vertex="1" parent="1">
          <mxGeometry x="541" y="505" width="50" height="20" as="geometry" />
        </mxCell>
      </root>
    </mxGraphModel>
  </diagram>
</mxfile>
